<mxfile host="app.diagrams.net" modified="2023-07-11T22:43:41.772Z" agent="Mozilla/5.0 (Windows NT 10.0; Win64; x64; rv:109.0) Gecko/20100101 Firefox/115.0" version="21.6.1" etag="Fgv7WUpmVtfIaN7SBwyl" type="github">
  <diagram name="PÃ¡gina-1" id="raKrGPhMi2ZnTzdbpExH">
    <mxGraphModel>
      <root>
        <mxCell id="0" />
        <mxCell id="1" parent="0" />
      </root>
    </mxGraphModel>
  </diagram>
</mxfile>
